<svg width="24" height="24" viewBox="0 0 617 617" fill="none" xmlns="http://www.w3.org/2000/svg">
<path d="M81.1731 0.25293H535.331C580.028 0.25293 616.505 36.5496 616.505 81.426V535.61C616.505 580.307 580.208 616.757 535.331 616.757H81.1731C36.4765 616.757 0 580.486 0 535.61V81.2205C0 36.5496 36.271 0.25293 81.1731 0.25293Z" fill="#5468FF"/>
<path d="M372.497 137.882V116.741C372.492 109.646 369.669 102.844 364.65 97.8296C359.63 92.8152 352.825 89.9991 345.73 90.0005H283.335C276.24 89.9991 269.435 92.8152 264.416 97.8296C259.397 102.844 256.574 109.646 256.568 116.741V138.447C256.568 140.862 258.803 142.557 261.244 141.992C278.894 136.896 297.176 134.319 315.547 134.337C333.349 134.337 350.971 136.752 368.002 141.427C370.262 141.992 372.497 140.323 372.497 137.882ZM201.494 165.548L190.834 154.888C188.35 152.402 185.401 150.43 182.154 149.085C178.908 147.74 175.429 147.047 171.915 147.047C168.401 147.047 164.921 147.74 161.675 149.085C158.429 150.43 155.48 152.402 152.996 154.888L140.255 167.603C137.764 170.079 135.787 173.022 134.438 176.265C133.089 179.507 132.395 182.984 132.395 186.496C132.395 190.008 133.089 193.485 134.438 196.728C135.787 199.97 137.764 202.914 140.255 205.39L150.735 215.87C152.431 217.54 154.871 217.155 156.361 215.485C162.544 206.993 169.372 198.989 176.783 191.544C184.256 184.045 192.332 177.172 200.929 170.994C202.799 169.864 202.984 167.243 201.494 165.548ZM315.362 232.67V324.118C315.362 326.738 318.188 328.613 320.603 327.303L401.904 285.227C403.754 284.302 404.319 282.042 403.394 280.192C386.543 250.626 355.255 230.435 319.113 229.125C317.238 229.125 315.362 230.615 315.362 232.67ZM315.362 452.967C247.573 452.967 192.498 397.97 192.498 330.283C192.498 262.596 247.573 207.624 315.362 207.624C383.178 207.624 438.232 262.596 438.232 330.283C438.232 397.97 383.363 452.967 315.362 452.967ZM315.362 156.018C219.085 156.018 140.994 234.006 140.994 330.283C140.994 426.586 219.085 504.394 315.362 504.394C411.64 504.394 489.73 426.406 489.73 330.103C489.73 233.8 411.82 156.018 315.362 156.018Z" fill="white"/>
</svg>
