<svg width="24" height="18" viewBox="0 0 24 18" fill="none" xmlns="http://www.w3.org/2000/svg">
<path d="M23.7662 6.51169C23.6995 6.45603 23.0984 5.99966 21.8072 5.99966C21.4733 5.99966 21.1282 6.03305 20.7943 6.08871C20.5494 4.38566 19.1357 3.56196 19.0801 3.51744L18.735 3.31708L18.5124 3.63988C18.2341 4.07399 18.0226 4.56375 17.9002 5.06465C17.6664 6.03305 17.8111 6.9458 18.3009 7.72497C17.711 8.0589 16.7537 8.13682 16.5533 8.14795L0.747233 8.14795C0.335384 8.14795 0.00145279 8.48188 0.00145279 8.89373C-0.0208093 10.274 0.212943 11.6542 0.691578 12.9566C1.237 14.3813 2.04957 15.4388 3.09589 16.0844C4.27578 16.8079 6.20145 17.2198 8.372 17.2198C9.35154 17.2198 10.3311 17.1307 11.2995 16.9526C12.6463 16.7077 13.9375 16.2402 15.1286 15.5612C16.1081 14.9935 16.9874 14.27 17.7332 13.4241C18.991 12.0104 19.7368 10.4298 20.2822 9.02731H20.5048C21.874 9.02731 22.7199 8.48188 23.1874 8.01438C23.4991 7.72497 23.7329 7.36878 23.8998 6.96806L24 6.67865L23.7662 6.51169Z" fill="#0091E2"/>
<path d="M2.21651 7.69156H4.33141C4.43159 7.69156 4.52064 7.61364 4.52064 7.50233V5.61005C4.52064 5.50987 4.44272 5.42082 4.33141 5.42082H2.21651C2.11633 5.42082 2.02728 5.49874 2.02728 5.61005V7.50233C2.03841 7.61364 2.11633 7.69156 2.21651 7.69156ZM5.13285 7.69156L7.24775 7.69156C7.34793 7.69156 7.43697 7.61364 7.43697 7.50233V5.61005C7.43697 5.50987 7.35906 5.42082 7.24775 5.42082L5.13285 5.42082C5.03267 5.42082 4.94362 5.49874 4.94362 5.61005V7.50233C4.95475 7.61364 5.03267 7.69156 5.13285 7.69156ZM8.10484 7.69156H10.2197C10.3199 7.69156 10.409 7.61364 10.409 7.50233L10.409 5.61005C10.409 5.50987 10.331 5.42082 10.2197 5.42082H8.10484C8.00466 5.42082 7.91561 5.49874 7.91561 5.61005V7.50233C7.91561 7.61364 7.99353 7.69156 8.10484 7.69156ZM11.0323 7.69156L13.1472 7.69156C13.2474 7.69156 13.3364 7.61364 13.3364 7.50233L13.3364 5.61005C13.3364 5.50987 13.2585 5.42082 13.1472 5.42082L11.0323 5.42082C10.9321 5.42082 10.8431 5.49874 10.8431 5.61005L10.8431 7.50233C10.8431 7.61364 10.9321 7.69156 11.0323 7.69156ZM5.13285 4.98671L7.24775 4.98671C7.34793 4.98671 7.43697 4.89766 7.43697 4.79748L7.43697 2.90521C7.43697 2.80503 7.35906 2.71598 7.24775 2.71598H5.13285C5.03267 2.71598 4.94362 2.79389 4.94362 2.90521V4.79748C4.95475 4.89766 5.03267 4.98671 5.13285 4.98671ZM8.10484 4.98671H10.2197C10.3199 4.98671 10.409 4.89766 10.409 4.79748V2.90521C10.409 2.80503 10.331 2.71598 10.2197 2.71598H8.10484C8.00466 2.71598 7.91561 2.79389 7.91561 2.90521L7.91561 4.79748C7.91561 4.89766 7.99353 4.98671 8.10484 4.98671ZM11.0323 4.98671L13.1472 4.98671C13.2474 4.98671 13.3364 4.89766 13.3364 4.79748V2.90521C13.3364 2.80503 13.2474 2.71598 13.1472 2.71598L11.0323 2.71598C10.9321 2.71598 10.8431 2.79389 10.8431 2.90521V4.79748C10.8431 4.89766 10.9321 4.98671 11.0323 4.98671ZM11.0323 2.27073L13.1472 2.27073C13.2474 2.27073 13.3364 2.19282 13.3364 2.08151V0.189229C13.3364 0.0890498 13.2474 0 13.1472 0L11.0323 0C10.9321 0 10.8431 0.0779187 10.8431 0.189229V2.08151C10.8431 2.18169 10.9321 2.27073 11.0323 2.27073ZM13.982 7.69156H16.0969C16.1971 7.69156 16.2862 7.61364 16.2862 7.50233V5.61005C16.2862 5.50987 16.2082 5.42082 16.0969 5.42082H13.982C13.8819 5.42082 13.7928 5.49874 13.7928 5.61005L13.7928 7.50233C13.8039 7.61364 13.8819 7.69156 13.982 7.69156Z" fill="#0091E2"/>
</svg>
