<svg width="24" height="36" viewBox="0 0 24 36" fill="none" xmlns="http://www.w3.org/2000/svg">
<g clip-path="url(#clip0_4_18846)">
<path d="M6.0012 35.9928C9.31253 35.9928 12 33.3053 12 29.994V23.9952H6.0012C2.68986 23.9952 0.00239563 26.6826 0.00239563 29.994C0.00239563 33.3053 2.68986 35.9928 6.0012 35.9928Z" fill="#0ACF83"/>
<path d="M0.00239563 17.9964C0.00239563 14.6851 2.68986 11.9976 6.0012 11.9976H12V23.9952H6.0012C2.68986 23.9952 0.00239563 21.3078 0.00239563 17.9964Z" fill="#A259FF"/>
<path d="M0.00239563 5.9988C0.00239563 2.68746 2.68986 0 6.0012 0H12V11.9976H6.0012C2.68986 11.9976 0.00239563 9.31014 0.00239563 5.9988Z" fill="#F24E1E"/>
<path d="M12 0H17.9988C21.3101 0 23.9976 2.68746 23.9976 5.9988C23.9976 9.31014 21.3101 11.9976 17.9988 11.9976H12V0Z" fill="#FF7262"/>
<path d="M23.9976 17.9964C23.9976 21.3078 21.3101 23.9952 17.9988 23.9952C14.6875 23.9952 12 21.3078 12 17.9964C12 14.6851 14.6875 11.9976 17.9988 11.9976C21.3101 11.9976 23.9976 14.6851 23.9976 17.9964Z" fill="#1ABCFE"/>
</g>
<defs>
<clipPath id="clip0_4_18846">
<rect width="24" height="35.9928" fill="white"/>
</clipPath>
</defs>
</svg>
