<svg width="24" height="24" viewBox="0 0 2500 2500" fill="none" xmlns="http://www.w3.org/2000/svg">
<circle cx="1250" cy="1250" r="1250" fill="white"/>
<path d="M1250 0C559.6 0 0 559.6 0 1250C0 1940.4 559.6 2500 1250 2500C1940.4 2500 2500 1940.4 2500 1250C2500 559.6 1940.4 0 1250 0ZM268.6 1263L1237 2231.4C705.2 2224.5 275.5 1794.8 268.6 1263ZM1469.7 2206.9L293.1 1030.3C392.9 594 783.4 268.4 1250 268.4C1576.1 268.4 1865.1 427.5 2043.6 672.3L1907.7 792.2C1762.9 584.6 1522.3 448.7 1250 448.7C903.3 448.7 608 668.9 496.4 977.1L1522.9 2003.5C1772.2 1913.2 1963.9 1702.8 2028.1 1442.2H1602.7V1250H2231.7C2231.6 1716.6 1906 2107.1 1469.7 2206.9Z" fill="#744C9E"/>
</svg>
