<svg width="24" height="24" viewBox="0 0 24 24" fill="none" xmlns="http://www.w3.org/2000/svg">
<g clip-path="url(#clip0_4_18817)">
<circle cx="12" cy="11.9712" r="11.6736" fill="white"/>
<path d="M11.9536 0C5.35266 0 0 5.35172 0 11.9536C0 17.2351 3.42506 21.7158 8.17462 23.2964C8.772 23.407 8.99137 23.0371 8.99137 22.7213C8.99137 22.4363 8.98022 21.4946 8.97516 20.4958C5.64956 21.2189 4.94784 19.0854 4.94784 19.0854C4.40409 17.7038 3.62062 17.3364 3.62062 17.3364C2.53612 16.5945 3.70237 16.6097 3.70237 16.6097C4.90275 16.6941 5.53481 17.8416 5.53481 17.8416C6.60094 19.669 8.33119 19.1407 9.01331 18.8353C9.12056 18.0626 9.43041 17.5354 9.77222 17.2369C7.11722 16.9345 4.32609 15.9096 4.32609 11.3293C4.32609 10.0243 4.79306 8.95791 5.55778 8.12081C5.43366 7.81969 5.02453 6.60394 5.67356 4.95741C5.67356 4.95741 6.67734 4.63612 8.96166 6.18272C9.91509 5.91778 10.9377 5.78503 11.9536 5.78053C12.9695 5.78503 13.9928 5.91778 14.9482 6.18272C17.2297 4.63612 18.2321 4.95741 18.2321 4.95741C18.8827 6.60394 18.4734 7.81969 18.3493 8.12081C19.1157 8.95791 19.5795 10.0242 19.5795 11.3293C19.5795 15.9204 16.7831 16.9314 14.1214 17.2273C14.5501 17.5983 14.9321 18.3258 14.9321 19.4409C14.9321 21.0403 14.9182 22.3276 14.9182 22.7213C14.9182 23.0394 15.1334 23.4122 15.7394 23.2948C20.4863 21.7124 23.9071 17.2333 23.9071 11.9536C23.9071 5.35172 18.5552 0 11.9536 0Z" fill="#161614"/>
<path d="M4.47701 17.0282C4.45076 17.0875 4.35719 17.1054 4.27216 17.0647C4.18544 17.0257 4.13669 16.9447 4.16482 16.885C4.1906 16.8239 4.28416 16.8069 4.37069 16.8479C4.4576 16.8868 4.5071 16.9686 4.47701 17.0282V17.0282ZM5.06501 17.5528C5.00801 17.6057 4.89654 17.5811 4.82088 17.4976C4.74269 17.4143 4.72807 17.3029 4.78591 17.2492C4.84469 17.1964 4.95279 17.221 5.03116 17.3045C5.10935 17.3888 5.12454 17.4995 5.06491 17.5529L5.06501 17.5528ZM5.46841 18.2241C5.3951 18.275 5.27529 18.2273 5.20132 18.121C5.1281 18.0147 5.1281 17.8872 5.20291 17.8361C5.27716 17.785 5.3951 17.831 5.4701 17.9365C5.54323 18.0445 5.54322 18.172 5.46832 18.2242L5.46841 18.2241ZM6.15054 19.0015C6.08501 19.0737 5.94551 19.0544 5.84332 18.9558C5.73888 18.8594 5.70973 18.7226 5.77544 18.6504C5.84173 18.578 5.98207 18.5983 6.08501 18.6961C6.18879 18.7923 6.22048 18.9301 6.15063 19.0015H6.15054ZM7.03216 19.264C7.00338 19.3576 6.86894 19.4002 6.73357 19.3604C6.59838 19.3195 6.50988 19.2098 6.53716 19.1152C6.56529 19.021 6.70029 18.9766 6.83669 19.0192C6.97169 19.06 7.06038 19.1688 7.03226 19.264H7.03216ZM8.03566 19.3753C8.03904 19.474 7.92419 19.5557 7.78207 19.5575C7.6391 19.5606 7.52351 19.4808 7.52201 19.3839C7.52201 19.2843 7.63423 19.2033 7.7771 19.201C7.91923 19.1981 8.03566 19.2774 8.03566 19.3753V19.3753ZM9.02135 19.3375C9.03841 19.4337 8.9396 19.5325 8.79851 19.5588C8.65976 19.5841 8.53132 19.5248 8.5136 19.4294C8.49635 19.3308 8.59704 19.2321 8.73551 19.2065C8.87688 19.1819 9.00335 19.2398 9.02135 19.3375" fill="#161614"/>
</g>
<defs>
<clipPath id="clip0_4_18817">
<rect width="24" height="23.3472" fill="white"/>
</clipPath>
</defs>
</svg>
