<svg width="24" height="24" viewBox="0 0 24 33" fill="none" xmlns="http://www.w3.org/2000/svg">
<g clip-path="url(#clip0_4_18781)">
<path d="M1.87326 18.9656C1.91493 19.8241 2.77342 19.4241 3.15682 19.1573C3.52356 18.8989 3.63192 19.1156 3.66522 18.6155C3.69024 18.2822 3.72354 17.9571 3.70689 17.6237C3.14845 17.5737 2.54834 17.7071 2.08989 18.0404C1.84825 18.2071 1.41482 18.7573 1.87318 18.9656H1.87326ZM18.9846 29.5174C19.643 29.9259 20.8516 31.1595 19.8597 31.7596C18.9095 32.6264 18.3762 30.801 17.5427 30.551C17.901 30.0592 18.3511 29.6092 18.9846 29.5174ZM7.19917 30.9094C6.42402 31.0261 5.99059 31.7262 5.34053 32.0846C4.73206 32.443 4.49869 31.9679 4.44865 31.8679C4.35703 31.8263 4.36532 31.9096 4.21529 31.7596C3.64857 30.8677 4.79874 30.2176 5.39885 29.7758C6.23232 29.6092 6.75746 30.3343 7.19917 30.9094ZM22.6436 18.8573C22.6019 19.7157 21.7434 19.3157 21.36 19.049C20.9933 18.7906 20.8849 19.0073 20.8516 18.5072C20.8265 18.1738 20.7932 17.8487 20.8099 17.5154C21.3683 17.4653 21.9684 17.5987 22.4269 17.9321C22.6603 18.0988 23.102 18.6489 22.6436 18.8573" fill="#F6D2A2"/>
<path d="M20.3681 8.38879C23.3437 7.3386 21.0183 3.26294 18.4261 5.06318C16.7258 3.60458 14.3838 3.33783 11.925 3.33783C9.51634 3.52969 7.22419 3.97141 5.62393 5.3716C3.04 3.70457 0.656311 7.70526 3.69015 8.71386C2.84003 12.0144 3.80679 15.3816 3.67341 18.7406C3.54841 21.7578 2.7566 25.8001 4.43192 28.5089C5.85721 30.826 8.92435 31.6512 11.4499 31.7429C14.6754 31.8596 18.5844 31.0678 20.1513 27.9422C21.6516 24.9667 21.2349 21.2577 21.0432 18.0488C20.8515 14.8066 21.2099 11.5143 20.3681 8.3887L20.3681 8.38879Z" fill="#69D7E2"/>
<path d="M22.8686 18.3489C22.7852 18.1738 22.6269 17.9738 22.4769 17.8654C22.0935 17.5904 21.6017 17.4403 21.0933 17.4237C21.0766 16.9069 21.06 16.3401 21.06 15.6234V14.9732C21.0516 12.9229 21.0266 12.0227 20.91 10.8975C20.8182 10.0141 20.6765 9.19723 20.4765 8.43045C21.1517 8.17206 21.5934 7.747 21.7684 7.19685C21.9351 6.68845 21.8518 6.11336 21.5685 5.60496C21.2767 5.10484 20.81 4.72973 20.2682 4.57979C19.6847 4.42139 19.0513 4.53812 18.4428 4.94645C17.901 4.48808 17.276 4.13799 16.5758 3.87124C15.3339 3.41296 13.8921 3.23792 11.9334 3.23792V3.32125L11.925 3.23792C9.83299 3.40459 8.28268 3.72966 6.99913 4.35479C6.48236 4.60481 6.024 4.90486 5.62395 5.25495C5.00711 4.87156 4.36533 4.77985 3.77359 4.96326C3.22352 5.12994 2.74842 5.5217 2.46502 6.0301C2.18162 6.5385 2.11493 7.12196 2.30663 7.62208C2.49832 8.12211 2.94004 8.51387 3.59855 8.7556C3.3902 9.59736 3.28184 10.4892 3.26519 11.4727C3.24846 12.4312 3.29013 13.1981 3.44015 14.9316C3.54851 16.2236 3.59018 16.8153 3.60692 17.5321C3.04011 17.5071 2.47339 17.6571 2.04824 17.9656C1.89822 18.0739 1.73154 18.2656 1.65657 18.4489C1.54821 18.6824 1.58988 18.8907 1.80659 19.0157C1.8399 19.4158 2.06498 19.5991 2.4067 19.5658C2.65672 19.5408 2.95677 19.4074 3.21516 19.2241C3.26974 19.1846 3.32843 19.151 3.3902 19.1241C3.41522 19.1157 3.43187 19.1074 3.45689 19.099C3.45689 19.099 3.50684 19.0824 3.52358 19.0741C3.54851 19.0657 3.57353 19.0573 3.59018 19.0407C3.57353 19.4324 3.54023 19.8409 3.46517 20.7744C3.38183 21.8245 3.34016 22.3997 3.32351 23.0415C3.24846 25.4251 3.53186 27.1588 4.38198 28.534C4.64874 28.9675 4.97381 29.3509 5.3572 29.701C5.28215 29.7509 4.96544 29.9844 4.86545 30.0593C4.51536 30.3261 4.27371 30.5511 4.13197 30.8011C3.94864 31.1262 3.94864 31.4512 4.15699 31.793L4.16535 31.8013L4.17372 31.8097C4.26534 31.9013 4.31538 31.9263 4.38207 31.9263H4.40692C4.41529 31.9431 4.42365 31.9514 4.43202 31.968C4.45696 32.0097 4.48197 32.043 4.50699 32.0764C4.71534 32.3181 5.00703 32.3764 5.39879 32.143C5.60713 32.0347 5.75716 31.9096 6.07386 31.6429L6.0906 31.6262C6.599 31.1929 6.84902 31.0345 7.22413 30.9761L7.3575 30.9511C7.40745 30.9762 7.45749 30.9929 7.51581 31.0178C8.69938 31.4929 10.0746 31.7513 11.4665 31.8013C13.2669 31.868 15.0005 31.6429 16.4674 31.1095C16.8591 30.9679 17.2259 30.8011 17.576 30.6178C17.7927 30.7011 17.9759 30.8761 18.3261 31.2846C18.3428 31.3013 18.3428 31.3013 18.351 31.3179C18.3678 31.3346 18.3678 31.343 18.3761 31.3512C18.3927 31.3763 18.4177 31.3929 18.4344 31.4179C18.7095 31.7429 18.8929 31.9013 19.1013 31.993C19.3762 32.1097 19.643 32.0513 19.918 31.8013C20.4015 31.5013 20.4348 31.0345 20.118 30.501C19.893 30.126 19.5013 29.7343 19.1346 29.4842C19.568 29.0592 19.943 28.5508 20.2347 27.9756C21.0349 26.3753 21.3433 24.5083 21.3266 22.1079C21.3183 21.2578 21.2849 20.516 21.1933 19.099V19.0574C21.2349 19.0741 21.2766 19.0991 21.3183 19.1324C21.5767 19.3074 21.8767 19.4491 22.1267 19.4741C22.4685 19.5075 22.6935 19.3241 22.7268 18.924C22.9352 18.7907 22.9769 18.5823 22.8685 18.349L22.8686 18.3489ZM20.2182 4.75475C20.7183 4.88813 21.1518 5.23822 21.4184 5.70495C21.6852 6.17168 21.7602 6.69682 21.6101 7.16355C21.4518 7.6553 21.0517 8.04706 20.4266 8.28042C20.3019 7.83418 20.1545 7.39463 19.9849 6.96348C20.2266 6.75514 20.3432 6.49675 20.1515 6.13009C19.9599 5.76327 19.6265 5.7216 19.2847 5.82996C19.068 5.54655 18.8263 5.29654 18.5763 5.06317C19.1264 4.71308 19.6932 4.61309 20.2182 4.75475V4.75475ZM2.44845 7.57196C2.27341 7.12179 2.33173 6.58846 2.59848 6.12173C2.86515 5.65491 3.29858 5.28825 3.81535 5.13823C4.34877 4.97983 4.92385 5.0548 5.49066 5.38824C5.1629 5.68283 4.87185 6.01586 4.6238 6.38011C4.19037 6.15503 3.74866 6.11336 3.49864 6.57172C3.24026 7.06356 3.54031 7.37189 3.96537 7.60526C3.90705 7.747 3.84865 7.89703 3.7987 8.04706C3.74029 8.23039 3.68197 8.42208 3.63202 8.61378C3.02354 8.38041 2.6235 8.02204 2.44845 7.57196V7.57196ZM3.45697 18.9323C3.4486 18.9323 3.39857 18.949 3.39857 18.9573C3.37363 18.9656 3.34861 18.974 3.3236 18.9906C3.25691 19.0157 3.19022 19.0573 3.12362 19.1073C2.89017 19.274 2.60676 19.3991 2.39005 19.4157C2.14003 19.4407 1.99837 19.3324 1.97336 19.0323C2.1484 18.974 2.22337 18.9323 2.29006 18.8323L2.15668 18.7323C2.10673 18.7989 2.05669 18.824 1.90667 18.8739C1.8983 18.8739 1.8983 18.8739 1.88993 18.8823C1.75664 18.8072 1.73162 18.6906 1.80668 18.5239C1.87337 18.3739 2.02339 18.1988 2.1484 18.1072C2.54844 17.8154 3.08186 17.6738 3.61528 17.7071C3.61528 17.9154 3.62365 18.1238 3.61528 18.3238C3.61528 18.3489 3.61528 18.3655 3.60692 18.3905C3.59863 18.5072 3.59863 18.5572 3.59026 18.6156C3.56533 18.8573 3.54859 18.8906 3.45697 18.9323V18.9323ZM5.97404 31.5095L5.95731 31.5262C5.64897 31.7929 5.49894 31.9012 5.30725 32.0096C4.99054 32.2013 4.77383 32.1596 4.6238 31.9763C4.59878 31.9512 4.58213 31.9179 4.56548 31.8929C4.55711 31.8845 4.54875 31.8679 4.54046 31.8596V31.8512C4.5572 31.7012 4.61552 31.5928 4.76554 31.3594C4.77391 31.3511 4.77391 31.3511 4.77391 31.3428C4.86553 31.2094 4.9072 31.1344 4.94887 31.0427L4.79885 30.9761C4.76554 31.0511 4.72387 31.1178 4.64045 31.2511C4.63208 31.2595 4.63208 31.2595 4.63208 31.2678C4.48214 31.4845 4.41537 31.6178 4.38207 31.7679H4.3737H4.34868C4.33195 31.7595 4.30701 31.7428 4.27371 31.7095C3.94864 31.1928 4.20702 30.7511 4.94042 30.2009C5.03213 30.1343 5.34055 29.9176 5.42389 29.8509C5.44062 29.8509 5.45719 29.8425 5.47392 29.8342C5.92392 30.2176 6.44906 30.551 7.03251 30.826C7.03251 30.8344 7.04088 30.8428 7.04916 30.8511C6.70744 30.9344 6.44069 31.1094 5.97396 31.5095H5.97404ZM19.9682 30.601C20.2266 31.0345 20.2182 31.3845 19.8931 31.6262C19.8682 31.5762 19.8515 31.5178 19.8182 31.4345C19.8182 31.4261 19.8182 31.4261 19.8098 31.4178C19.6932 31.1011 19.6182 30.9678 19.4765 30.8177L19.3597 30.9344C19.4847 31.0511 19.5431 31.1761 19.6598 31.4678C19.6598 31.4762 19.6598 31.4762 19.6682 31.4845C19.7098 31.5928 19.7348 31.6595 19.7599 31.7179C19.5431 31.9012 19.3514 31.9346 19.1514 31.8429C18.9763 31.7679 18.8097 31.6095 18.5429 31.3095C18.5263 31.2928 18.5096 31.2678 18.493 31.2428C18.4846 31.2344 18.4762 31.2261 18.4679 31.2094C18.4513 31.1928 18.4513 31.1928 18.4429 31.1761C18.1345 30.8177 17.9512 30.626 17.7511 30.5176C18.2179 30.2509 18.6347 29.9509 19.0097 29.6008C19.3597 29.8592 19.7515 30.2426 19.9682 30.601V30.601ZM20.0848 27.9005C19.3681 29.3425 18.1012 30.3593 16.4009 30.9761C14.9506 31.5012 13.2336 31.7179 11.4583 31.6512C8.39949 31.5429 5.74904 30.476 4.50716 28.459C3.67369 27.117 3.39857 25.4084 3.47362 23.058C3.49864 22.4162 3.53194 21.8412 3.61528 20.791C3.70699 19.6074 3.73201 19.2657 3.75703 18.7323C3.77368 18.3489 3.77368 17.9571 3.76539 17.5404C3.74866 16.8069 3.70699 16.2235 3.59863 14.9149C3.4486 13.1813 3.40694 12.4228 3.42359 11.4726C3.44869 10.2225 3.61528 9.12218 3.96537 8.08044C4.53193 6.38831 5.57392 5.24642 7.07418 4.50473C8.33272 3.88806 9.858 3.57127 11.9334 3.40451C13.8754 3.40451 15.2923 3.57955 16.5175 4.02963C17.9844 4.57142 19.0762 5.52154 19.8264 6.98022C20.3098 8.1637 20.5932 9.43897 20.7433 10.9058C20.8599 12.0227 20.8849 12.9229 20.8933 14.9649V15.615C20.9017 16.6235 20.9182 17.332 20.96 18.0404C20.9766 18.3155 20.9849 18.4322 21.0266 19.0906C21.1183 20.5076 21.1517 21.241 21.16 22.0912C21.1767 24.4832 20.8766 26.3252 20.0848 27.9005H20.0848ZM22.6353 18.7739C22.6269 18.7739 22.6186 18.7656 22.6104 18.7656C22.4603 18.7156 22.4103 18.6822 22.3603 18.6239L22.2269 18.7239C22.3019 18.824 22.3769 18.8656 22.5437 18.9239C22.5103 19.224 22.3686 19.3324 22.127 19.3073C21.9103 19.2906 21.6268 19.1573 21.3934 18.9989C21.3267 18.949 21.2601 18.9156 21.1934 18.8823C21.1851 18.8823 21.1767 18.8739 21.1683 18.8739C21.135 18.4156 21.135 18.2988 21.1184 18.0571L21.0934 17.607C21.5602 17.6154 22.0185 17.757 22.3685 18.0154C22.4936 18.1071 22.6437 18.2822 22.7104 18.4321C22.7937 18.5739 22.777 18.6989 22.6353 18.7739V18.7739Z" fill="black"/>
<path d="M13.1886 11.9336C13.197 12.3586 13.2803 12.8253 13.2053 13.2754C13.0886 13.4921 12.8719 13.5172 12.6802 13.6005C12.4135 13.5588 12.1884 13.3838 12.0801 13.1338C12.0134 12.6254 12.0968 12.1419 12.1218 11.6335C12.1218 11.6168 12.4385 11.6419 12.7219 11.7252C12.9636 11.8002 13.1886 11.9252 13.1886 11.9336V11.9336ZM10.8299 11.9669C10.5964 12.8504 11.1383 14.2923 12.0301 13.1087C11.9634 12.6086 12.0385 12.1252 12.0634 11.6335C12.0718 11.5918 10.8382 11.9085 10.8299 11.9669V11.9669Z" fill="white"/>
<path d="M13.2886 12.3253C13.2719 12.0752 13.2636 11.9752 13.2636 11.8502V11.7919L13.2053 11.7751L12.1551 11.4501V11.3917L12.0467 11.4168H12.0384V11.4251L10.8549 11.7252L10.8132 11.7335L10.7965 11.7751C10.6132 12.2169 10.6548 12.8837 10.8882 13.2921C11.1549 13.7589 11.5883 13.7671 12.0301 13.2337C12.0917 13.3525 12.1803 13.4552 12.2889 13.5334C12.3975 13.6116 12.5229 13.6631 12.6551 13.6839H12.6802L12.7052 13.6755C12.7386 13.6588 12.7719 13.6504 12.8303 13.6255C12.8386 13.6255 12.8386 13.6255 12.8469 13.6171C13.0886 13.5338 13.1886 13.4671 13.272 13.3088L13.2803 13.3004V13.2838C13.3053 13.1337 13.3136 12.9753 13.3136 12.8004C13.3136 12.6753 13.3053 12.5586 13.2886 12.3253V12.3253ZM11.955 12.0168C11.9467 12.1669 11.9384 12.2252 11.9301 12.3085C11.9134 12.617 11.9134 12.8503 11.9385 13.0837C11.5466 13.5838 11.2383 13.5838 11.0299 13.2087C10.8299 12.8587 10.7881 12.2669 10.9382 11.8752L11.9883 11.6084C11.9801 11.7168 11.9718 11.8252 11.955 12.0168V12.0168ZM13.1219 13.2504C13.0636 13.3504 12.9886 13.4005 12.7885 13.4672C12.7801 13.4672 12.7801 13.4672 12.7719 13.4754C12.7219 13.4922 12.6885 13.5087 12.6635 13.5171C12.4384 13.4754 12.2468 13.3254 12.1551 13.1171C12.1301 12.892 12.1301 12.6586 12.1467 12.3503C12.1551 12.2669 12.1551 12.2085 12.1718 12.0585C12.1884 11.8669 12.1968 11.7502 12.1968 11.6418L13.1053 11.9169C13.1053 12.0252 13.1137 12.1252 13.1303 12.3419C13.147 12.567 13.1553 12.6836 13.1553 12.817C13.1553 12.9753 13.1469 13.1171 13.1219 13.2504Z" fill="black"/>
<path d="M5.81269 8.3022C6.57948 11.286 11.3553 10.5192 11.172 7.52705C10.9552 3.94306 5.07921 4.63487 5.81261 8.3022" fill="white"/>
<path d="M11.2553 7.51871C11.2053 6.65185 10.8219 5.97677 10.1885 5.55171C9.6217 5.16832 8.87156 5.01829 8.1298 5.10991C7.38803 5.21007 6.7045 5.54343 6.25442 6.06856C5.75439 6.65193 5.56269 7.41872 5.73773 8.30223L5.81271 8.28549L5.73773 8.30223C6.52117 11.3694 11.4387 10.6276 11.2553 7.51871ZM5.88768 8.28558C5.721 7.44382 5.90441 6.72699 6.37114 6.1852C6.79621 5.69345 7.43798 5.36846 8.14645 5.27676C8.85491 5.18505 9.56338 5.32679 10.0969 5.69345C10.6885 6.09358 11.047 6.7187 11.0969 7.54381C11.272 10.4526 6.62953 11.1528 5.88776 8.28558H5.88768Z" fill="black"/>
<path d="M7.12965 8.68565C7.57615 8.68565 7.93811 8.29383 7.93811 7.81051C7.93811 7.32718 7.57615 6.93536 7.12965 6.93536C6.68315 6.93536 6.3212 7.32718 6.3212 7.81051C6.3212 8.29383 6.68315 8.68565 7.12965 8.68565Z" fill="black"/>
<path d="M7.49629 8.23546C7.60216 8.23546 7.68799 8.13472 7.68799 8.01046C7.68799 7.8862 7.60216 7.78546 7.49629 7.78546C7.39042 7.78546 7.3046 7.8862 7.3046 8.01046C7.3046 8.13472 7.39042 8.23546 7.49629 8.23546Z" fill="white"/>
<path d="M12.5105 7.74441C13.1023 11.17 18.7032 10.2615 17.8948 6.81087C17.1697 3.71034 12.3104 4.56883 12.5105 7.74441" fill="white"/>
<path d="M17.9697 6.79421C17.228 3.60198 12.2272 4.47712 12.4272 7.75269V7.76106C12.7021 9.37797 14.1442 10.2032 15.7361 9.9364C16.4611 9.81139 17.1112 9.46139 17.5363 8.94462C18.003 8.36945 18.1697 7.62768 17.9697 6.79421V6.79421ZM17.4114 8.84455C17.0113 9.32801 16.4029 9.66137 15.711 9.77809C14.2024 10.0281 12.8522 9.25296 12.5855 7.73604C12.4021 4.65216 17.1196 3.82697 17.8197 6.82751C18.0031 7.61931 17.8531 8.31113 17.4114 8.84455V8.84455Z" fill="black"/>
<path d="M13.8857 8.46952C14.323 8.46952 14.6775 8.07771 14.6775 7.59438C14.6775 7.11105 14.323 6.71924 13.8857 6.71924C13.4484 6.71924 13.0939 7.11105 13.0939 7.59438C13.0939 8.07771 13.4484 8.46952 13.8857 8.46952Z" fill="black"/>
<path d="M14.2525 8.01933C14.3537 8.01933 14.4358 7.9186 14.4358 7.79433C14.4358 7.67007 14.3537 7.56934 14.2525 7.56934C14.1512 7.56934 14.0691 7.67007 14.0691 7.79433C14.0691 7.9186 14.1512 8.01933 14.2525 8.01933Z" fill="white"/>
<path d="M11.002 10.1662C10.3435 10.2246 9.81006 10.9997 10.1519 11.6165C10.6019 12.4333 11.6104 11.5415 12.2355 11.6248C12.9606 11.6416 13.5524 12.3916 14.1275 11.7582C14.7693 11.058 13.8525 10.3746 13.1273 10.0745L11.002 10.1662Z" fill="#F6D2A2"/>
<path d="M14.2109 10.7247C13.9858 10.4413 13.5941 10.1829 13.169 10.0079L13.1523 9.99951H13.1356L11.002 10.0829C10.2601 10.1496 9.72679 11.0081 10.0851 11.6582C10.2268 11.9083 10.4185 12.0333 10.6769 12.0499C10.8685 12.0583 11.0687 12.0166 11.377 11.9083C11.402 11.8999 11.4353 11.8915 11.477 11.8749C11.8938 11.7332 12.0604 11.6916 12.2271 11.7166H12.2355C12.4355 11.7166 12.6022 11.7749 12.9189 11.8999C13.269 12.0416 13.3774 12.0833 13.5523 12.0999C13.7942 12.1166 14.0025 12.0333 14.1941 11.8249C14.5192 11.4665 14.5025 11.0831 14.2109 10.7247V10.7247ZM14.0691 11.7082C13.9108 11.8833 13.7524 11.9417 13.5607 11.9333C13.4107 11.9249 13.3107 11.8833 12.9773 11.7499C12.6439 11.6082 12.4606 11.5583 12.2439 11.5499C12.0355 11.5248 11.8605 11.5666 11.4187 11.7166C11.377 11.7332 11.3437 11.7416 11.3187 11.7499C10.7102 11.9582 10.4185 11.9416 10.2185 11.5748C9.9184 11.0331 10.3768 10.2996 11.002 10.2413L13.1106 10.1579C13.5108 10.3247 13.8691 10.5663 14.0775 10.8248C14.3275 11.1248 14.3359 11.4248 14.0691 11.7082V11.7082Z" fill="#231F20"/>
<path d="M13.2941 9.80791C13.0357 8.85771 10.8686 8.99945 10.9186 10.133C11.0269 10.9747 13.5441 10.7497 13.2941 9.80791Z" fill="black"/>
</g>
<defs>
<clipPath id="clip0_4_18781">
<rect width="24" height="32.6264" fill="white"/>
</clipPath>
</defs>
</svg>
