<svg width="24" height="28" viewBox="0 0 24 28" fill="none" xmlns="http://www.w3.org/2000/svg">
<g clip-path="url(#clip0_4_18868)">
<path fill-rule="evenodd" clip-rule="evenodd" d="M14.304 3.09162L19.8489 6.29319C20.009 6.1238 20.1927 5.97843 20.3944 5.86156C21.5443 5.20044 23.0111 5.59297 23.6791 6.743C24.3402 7.89303 23.9477 9.35975 22.7976 10.0277C22.5975 10.143 22.3818 10.2289 22.1572 10.2827V16.6882C22.3794 16.7421 22.5927 16.8274 22.7908 16.9415C23.9477 17.6095 24.3402 19.0763 23.6722 20.2263C23.0111 21.3762 21.5375 21.7688 20.3874 21.1077C20.1646 20.9799 19.9639 20.817 19.7931 20.6252L14.2819 23.8071C14.3626 24.0515 14.4036 24.3072 14.4033 24.5646C14.4033 25.8867 13.3291 26.968 12 26.968C10.6709 26.968 9.59671 25.8936 9.59671 24.5646C9.59671 24.3283 9.63065 24.1002 9.69393 23.8846L4.15049 20.684C3.99216 20.85 3.81104 20.9927 3.61256 21.1077C2.45568 21.7688 0.988869 21.3762 0.327744 20.2263C-0.333288 19.0763 0.0592437 17.6095 1.20918 16.9415C1.40728 16.8274 1.62061 16.7421 1.84274 16.6881V10.2827C1.61816 10.2289 1.40248 10.143 1.20234 10.0277C0.0523062 9.36669 -0.340225 7.89303 0.3209 6.743C0.982025 5.59297 2.45559 5.20044 3.60562 5.86156C3.80616 5.9778 3.98896 6.12225 4.14843 6.29047L9.69496 3.08806C9.62958 2.86615 9.59649 2.63597 9.59671 2.40462C9.59671 1.07572 10.6709 0.00134277 12 0.00134277C13.3291 0.00134277 14.4033 1.07562 14.4033 2.40462C14.4033 2.6435 14.3686 2.87403 14.304 3.09162ZM13.7263 4.07806L19.2845 7.28712C19.196 7.5965 19.1706 7.92052 19.2098 8.23991C19.2491 8.5593 19.3522 8.86753 19.5129 9.14628C19.8513 9.73484 20.4024 10.125 21.0141 10.2771V16.6905C20.9829 16.6981 20.9519 16.7065 20.9211 16.7153L13.6617 4.14228C13.6836 4.12128 13.7052 4.09991 13.7263 4.07816V4.07806ZM10.3398 4.14369L3.08052 16.7165C3.04914 16.7074 3.01757 16.699 2.98584 16.6912V10.2771C3.59756 10.125 4.14871 9.73484 4.48706 9.14628C4.64816 8.867 4.75133 8.55812 4.79042 8.23808C4.82952 7.91804 4.80372 7.59341 4.71459 7.28356L10.2711 4.07544C10.2936 4.09859 10.3164 4.12137 10.3398 4.14359V4.14369ZM12.6715 4.71322L19.9291 17.2832C19.7628 17.4418 19.6203 17.6236 19.506 17.8229C19.3919 18.021 19.3066 18.2344 19.2527 18.4565H4.74749C4.69347 18.2344 4.60811 18.021 4.49399 17.8229C4.37924 17.625 4.23702 17.4443 4.07156 17.2863L11.3305 4.71378C11.5482 4.77644 11.7735 4.80813 12 4.80791C12.2331 4.80791 12.4584 4.77491 12.6715 4.71322ZM13.7773 22.9455L19.2994 19.7573C19.2828 19.7052 19.268 19.6526 19.255 19.5996H4.7444C4.73671 19.6308 4.72837 19.6617 4.71946 19.6926L10.2685 22.8965C10.4926 22.6635 10.7615 22.4782 11.0591 22.3519C11.3567 22.2255 11.6767 22.1607 12 22.1613C12.3346 22.1607 12.6656 22.2302 12.9717 22.3653C13.2778 22.5003 13.5522 22.698 13.7773 22.9455V22.9455Z" fill="#E535AB"/>
</g>
<defs>
<clipPath id="clip0_4_18868">
<rect width="24" height="27.0027" fill="white"/>
</clipPath>
</defs>
</svg>
