<svg width="36" height="36" viewBox="0 0 36 37" fill="none" xmlns="http://www.w3.org/2000/svg">
<g clip-path="url(#clip0_54_6)">
<path fill-rule="evenodd" clip-rule="evenodd" d="M2.66062 0.0722656C1.19166 0.0722656 0 1.22764 0 2.65105V33.4943C0 34.9179 1.1918 36.0723 2.66062 36.0723H33.3394C34.8089 36.0723 36 34.9177 36 33.4939V2.65105C36 1.22764 34.8089 0.0722656 33.3394 0.0722656H2.66062ZM10.9401 13.9922V30.1995H5.553V13.9922H10.9401ZM11.2951 8.97987C11.2951 10.5352 10.1258 11.7797 8.24766 11.7797L8.24724 11.7796H8.21236C6.40435 11.7796 5.23547 10.535 5.23547 8.97973C5.23547 7.38912 6.43965 6.17932 8.28338 6.17932C10.1258 6.17932 11.26 7.38912 11.2951 8.97987ZM19.3085 30.1995H13.9219L13.9217 30.2C13.9217 30.2 13.9925 15.5132 13.9222 13.9927H19.3089V16.2868C20.025 15.1827 21.3066 13.6122 24.164 13.6122C27.7082 13.6122 30.3654 15.9287 30.3654 20.9067V30.1995H24.9789V21.5299C24.9789 19.351 24.1989 17.8648 22.2501 17.8648C20.7616 17.8648 19.8752 18.8671 19.486 19.8353C19.3437 20.1808 19.3085 20.6658 19.3085 21.1496V30.1995Z" fill="black"/>
</g>
<defs>
<clipPath id="clip0_54_6">
<rect width="36" height="36.1446" fill="white"/>
</clipPath>
</defs>
</svg>
