<svg width="36" height="36" viewBox="0 0 36 36" fill="none" xmlns="http://www.w3.org/2000/svg">
<g clip-path="url(#clip0_54_10)">
<path fill-rule="evenodd" clip-rule="evenodd" d="M27.7392 0.000141767H8.26122C7.17568 -0.00223124 6.10036 0.209842 5.09699 0.624165C4.09363 1.03849 3.18198 1.6469 2.41438 2.4145C1.64678 3.18209 1.03836 4.09375 0.624033 5.09712C0.209709 6.10048 -0.00235331 7.17581 1.96974e-05 8.26135V27.7393C-0.00235331 28.8249 0.209709 29.9002 0.624033 30.9036C1.03836 31.907 1.64678 32.8186 2.41438 33.5862C3.18198 34.3538 4.09363 34.9622 5.09699 35.3765C6.10036 35.7909 7.17568 36.0029 8.26122 36.0006H27.7392C28.8248 36.0029 29.9001 35.7909 30.9035 35.3765C31.9068 34.9622 32.8185 34.3538 33.5861 33.5862C34.3537 32.8186 34.9621 31.907 35.3764 30.9036C35.7907 29.9002 36.0028 28.8249 36.0004 27.7393V8.26135C36.0028 7.17581 35.7907 6.10048 35.3764 5.09712C34.9621 4.09375 34.3537 3.18209 33.5861 2.4145C32.8185 1.6469 31.9068 1.03849 30.9035 0.624165C29.9001 0.209842 28.8248 -0.00223124 27.7392 0.000141767ZM7.34993 10.3377C7.51913 10.2705 7.69793 10.2377 7.88753 10.2377L28.5751 10.2381C28.8195 10.2368 29.0602 10.2971 29.2751 10.4133L22.5251 17.3633L19.1251 20.8758C19.0728 20.9163 19.033 20.9532 18.9971 20.9866C18.9408 21.039 18.8939 21.0825 18.8231 21.1169C18.6683 21.1921 18.4927 21.2413 18.3207 21.2353C18.1615 21.2297 18.0071 21.1637 17.8643 21.0925C17.7911 21.0558 17.7043 20.9861 17.6397 20.9342C17.6066 20.9076 17.5793 20.8856 17.5627 20.8753L14.6251 17.8629L14.4251 17.6505L14.2251 17.4505L14.1627 17.3753L10.7375 13.8253L7.34993 10.3377ZM6.26233 12.1001C6.26233 11.5193 6.48873 11.0049 6.84993 10.6625L6.87473 10.6873L10.3123 14.2373L13.7499 17.7749L13.8123 17.8497L10.6747 20.8873L7.13713 24.3249L6.66233 24.7749C6.41313 24.4473 6.26233 24.0201 6.26233 23.5501V12.1001ZM22.9499 17.7753L29.7251 10.7753C30.0207 11.1129 30.1999 11.5825 30.1999 12.1001V23.5501C30.1999 23.9557 30.0903 24.3321 29.8999 24.6377L29.6875 24.4377L26.1499 21.0001L22.8875 17.8377L22.9499 17.7753ZM11.0875 21.3001L14.2123 18.2625L17.1879 21.3129C17.2027 21.3253 17.2167 21.3371 17.2301 21.3483C17.3476 21.4473 17.4126 21.502 17.5243 21.557C17.7719 21.6786 18.0427 21.7865 18.3187 21.7909C18.5939 21.7949 18.8675 21.6973 19.1175 21.5817C19.2128 21.5378 19.2897 21.4768 19.3716 21.4118C19.4231 21.3709 19.4766 21.3285 19.5379 21.2877L22.4755 18.2629L25.7379 21.4129L29.2879 24.8505L29.5127 25.0754C29.2463 25.2902 28.9271 25.4254 28.5751 25.4254H7.88753C7.59473 25.4254 7.32473 25.3282 7.08753 25.1754L7.53753 24.7377L11.0875 21.3001Z" fill="black"/>
</g>
<defs>
<clipPath id="clip0_54_10">
<rect width="36" height="36" fill="white"/>
</clipPath>
</defs>
</svg>
