<svg width="24" height="24" viewBox="0 0 24 24" fill="none" xmlns="http://www.w3.org/2000/svg">
<g clip-path="url(#clip0_4_18805)">
<path d="M0.0411377 0.0410767L20.5579 21.7705C20.5579 21.7705 21.257 22.2635 21.7914 21.6883C22.3259 21.1133 21.9148 20.5382 21.9148 20.5382L0.0412314 0.0411704L0.0411377 0.0410767ZM6.53746 2.09491L22.1615 18.9362C22.1615 18.9362 22.8604 19.4292 23.395 18.8541C23.9295 18.279 23.5183 17.704 23.5183 17.704L6.53746 2.09491ZM1.97356 6.49014L17.5975 23.3314C17.5975 23.3314 18.2965 23.8244 18.831 23.2492C19.3655 22.6742 18.9543 22.0991 18.9543 22.0991L1.97356 6.49014ZM12.0291 3.86117L22.9448 15.6272C22.9448 15.6272 23.4332 15.9716 23.8066 15.5698C24.18 15.168 23.8927 14.7663 23.8927 14.7663L12.0292 3.86117H12.0291ZM3.47712 11.5836L14.3927 23.3496C14.3927 23.3496 14.8811 23.694 15.2545 23.2922C15.6279 22.8904 15.3406 22.4887 15.3406 22.4887L3.47712 11.5836ZM17.6387 6.40793L22.5861 11.7569C22.5861 11.7569 22.8276 11.9183 23.0123 11.73C23.197 11.5418 23.055 11.3535 23.055 11.3535L17.6387 6.40793ZM6.20852 17.0056L11.1558 22.3546C11.1558 22.3546 11.3974 22.516 11.5821 22.3278C11.7668 22.1394 11.6247 21.9512 11.6247 21.9512L6.20852 17.0056Z" fill="#DF4F4F"/>
</g>
<defs>
<clipPath id="clip0_4_18805">
<rect width="24" height="23.5265" fill="white"/>
</clipPath>
</defs>
</svg>
