<svg width="15" height="32" viewBox="0 0 15 32" fill="none" xmlns="http://www.w3.org/2000/svg">
<path d="M7.08654 0.0874023L7.94047 1.69128C8.13246 1.98726 8.34044 2.24924 8.58542 2.49322C9.30365 3.2025 9.97313 3.9595 10.5893 4.75905C12.0362 6.65891 13.0121 8.76875 13.709 11.0506C14.127 12.4445 14.354 13.8744 14.371 15.3203C14.441 19.6429 12.9591 23.3547 9.97132 26.4394C9.48533 26.9286 8.9603 27.3774 8.40144 27.7813C8.10546 27.7813 7.96547 27.5543 7.84348 27.3454C7.62132 26.9578 7.47347 26.5322 7.40751 26.0905C7.30252 25.5675 7.23352 25.0445 7.26752 24.5046V24.2606C7.24352 24.2086 6.98254 0.210393 7.08654 0.0874023V0.0874023Z" fill="#599636"/>
<path d="M7.08655 0.0344004C7.05155 -0.0355943 7.01655 0.0174017 6.98155 0.0513992C6.99855 0.401373 6.87656 0.71335 6.68558 1.01133C6.47559 1.30731 6.19761 1.53429 5.91863 1.77827C4.36875 3.12017 3.14884 4.74105 2.17191 6.55391C0.872011 8.99373 0.202062 11.6085 0.0120758 14.3613C-0.0749177 15.3543 0.326052 18.858 0.639029 19.8689C1.49296 22.5527 3.02685 24.8015 5.0137 26.7534C5.50166 27.2234 6.02363 27.6593 6.56358 28.0783C6.72057 28.0783 6.73757 27.9383 6.77357 27.8343C6.8424 27.6118 6.89487 27.3845 6.93056 27.1544L7.28053 24.5406L7.08655 0.0344004Z" fill="#6CAC48"/>
<path d="M7.9405 28.8432C7.97549 28.4432 8.16748 28.1113 8.37646 27.7803C8.16648 27.6933 8.01049 27.5203 7.8885 27.3273C7.78331 27.1446 7.69623 26.952 7.62852 26.7524C7.38454 26.0204 7.33254 25.2525 7.26255 24.5045V24.0516C7.17555 24.1216 7.15755 24.7135 7.15755 24.8015C7.10667 25.592 7.00177 26.3781 6.84358 27.1543C6.79158 27.4683 6.75658 27.7813 6.5636 28.0603C6.5636 28.0953 6.5636 28.1303 6.5806 28.1823C6.89457 29.1062 6.98057 30.0471 7.03356 31.0061V31.356C7.03356 31.774 7.01656 31.686 7.36354 31.826C7.50353 31.878 7.65952 31.896 7.79951 32C7.9045 32 7.9215 31.913 7.9215 31.843L7.8695 31.268V29.6642C7.8525 29.3842 7.9045 29.1062 7.9395 28.8442L7.9405 28.8432Z" fill="#C2BFBF"/>
</svg>
