<svg width="24" height="24" viewBox="0 0 24 24" fill="none" xmlns="http://www.w3.org/2000/svg">
<path d="M20.2136 3.04479C19.0924 1.84234 17.7632 0.908018 16.2628 0.26774C16.0456 0.175411 15.7945 0.219067 15.6222 0.38014C15.4493 0.541213 15.388 0.788761 15.465 1.01189C16.8245 4.93318 15.7416 9.29537 12.7077 12.1249C9.67254 14.9547 5.24545 15.7306 1.4292 14.1006C1.21377 14.0086 0.960869 14.052 0.78859 14.213C0.615641 14.3741 0.554423 14.6217 0.631364 14.8448C1.1661 16.3866 2.00542 17.7777 3.12658 18.9795C5.25432 21.2615 8.14377 22.5785 11.2622 22.6874C11.402 22.6924 11.5412 22.6946 11.6804 22.6946C14.6456 22.6946 17.4576 21.5888 19.6372 19.5561C21.9198 17.4278 23.2361 14.5385 23.345 11.4199C23.4536 8.30133 22.3418 5.32708 20.2136 3.04479ZM22.1531 11.3783C22.0553 14.1782 20.8727 16.7726 18.8238 18.6835C16.7748 20.5941 14.1031 21.598 11.3038 21.495C8.50338 21.3974 5.90931 20.2151 3.99885 18.1658C3.29468 17.4113 2.71461 16.5736 2.26551 15.6657C6.19115 16.8151 10.4826 15.8308 13.5207 12.9975C16.5594 10.164 17.8408 5.9508 16.9677 1.95491C17.8425 2.46623 18.6376 3.1035 19.3411 3.85869C21.2521 5.90765 22.2505 8.57849 22.1531 11.3783Z" fill="black"/>
</svg>
