<svg width="32" height="22" viewBox="0 0 32 22" fill="none" xmlns="http://www.w3.org/2000/svg">
<path d="M8.49694 5.67844H15.289V6.21951H9.11969V10.2913H14.921V10.8324H9.11969V15.3029H15.3597V15.8439H8.49694V5.67844ZM15.8973 5.67844H16.6191L19.817 10.1489L23.0856 5.67844L27.5315 0L20.2274 10.6188L23.9912 15.8439H23.2412L19.817 11.0887L16.3787 15.8439H15.6428L19.4349 10.6188L15.8976 5.67844H15.8973ZM24.2602 6.21951V5.67844H32V6.21951H28.4344V15.8437H27.8116V6.21951H24.2604H24.2602ZM0 5.67844H0.778323L11.5098 21.7723L7.07489 15.8439L0.650797 6.44726L0.622512 15.8439H0V5.67844Z" fill="black"/>
</svg>
