<svg width="24" height="24" viewBox="0 0 30 27" fill="none" xmlns="http://www.w3.org/2000/svg">
<g clip-path="url(#clip0_4_18840)">
<path d="M0.0883484 13.4467C0.0883484 15.6984 2.28705 17.8003 5.75331 18.9851C5.06111 22.4698 5.62933 25.2785 7.52698 26.3729C9.47749 27.4978 12.3834 26.7191 15.1415 24.3081C17.83 26.6218 20.5471 27.5323 22.4432 26.4347C24.3919 25.3066 24.9845 22.3075 24.2732 18.7139C27.8836 17.5203 29.9031 15.728 29.9031 13.4467C29.9031 11.2473 27.7004 9.34459 24.2808 8.16738C25.0466 4.42538 24.3978 1.68483 22.4215 0.545232C20.5162 -0.553472 17.7675 0.404144 15.0394 2.77826C12.2013 0.258369 9.47971 -0.510935 7.50554 0.63183C5.60202 1.7337 5.05888 4.59354 5.75331 8.14265C2.40399 9.31038 0.0883484 11.2562 0.0883484 13.4467Z" fill="white"/>
<path d="M23.5566 9.33643C23.2748 9.23976 22.9906 9.1502 22.7042 9.06785C22.7517 8.87489 22.7956 8.68108 22.8359 8.4865C23.4812 5.35445 23.0593 2.83127 21.6186 2.00068C20.2374 1.20407 17.9784 2.03466 15.6968 4.02009C15.472 4.21618 15.2522 4.41791 15.0376 4.6251C14.8938 4.48733 14.7476 4.35224 14.5988 4.21989C12.2077 2.09677 9.81098 1.2022 8.37186 2.03525C6.99191 2.83408 6.58318 5.20621 7.16406 8.17445C7.22185 8.46839 7.2871 8.76081 7.35975 9.05144C7.02062 9.14776 6.6931 9.25042 6.37975 9.35963C3.57651 10.3369 1.78619 11.8687 1.78619 13.4575C1.78619 15.0985 3.70799 16.7445 6.62795 17.7424C6.86471 17.8229 7.10345 17.8976 7.34393 17.9662C7.26581 18.2793 7.19645 18.5946 7.13593 18.9115C6.58213 21.8282 7.01465 24.1441 8.39096 24.938C9.8125 25.7577 12.1983 24.9151 14.5216 22.8844C14.7052 22.7238 14.8896 22.5536 15.0741 22.3751C15.3066 22.5994 15.5453 22.8172 15.7899 23.0282C18.0402 24.9646 20.2627 25.7466 21.6379 24.9505C23.0581 24.1284 23.5196 21.6405 22.9203 18.6135C22.8746 18.3823 22.8213 18.1462 22.7615 17.9058C22.9291 17.8563 23.0935 17.8052 23.2539 17.752C26.2894 16.7464 28.2643 15.1204 28.2643 13.4575C28.2643 11.863 26.4163 10.3209 23.5566 9.33643V9.33643Z" fill="#53C1DE"/>
<path d="M22.8982 16.6784C22.7534 16.7263 22.6049 16.7726 22.4535 16.8175C22.1183 15.7566 21.666 14.6285 21.1126 13.4631C21.6408 12.3253 22.0755 11.2117 22.4013 10.1576C22.6721 10.2362 22.9351 10.3188 23.1884 10.4061C25.6387 11.2494 27.1333 12.4966 27.1333 13.4575C27.1333 14.4811 25.5191 15.8099 22.8983 16.6784H22.8982ZM21.8107 18.8333C22.0757 20.1717 22.1135 21.3819 21.938 22.3279C21.7802 23.1779 21.4631 23.7446 21.071 23.9716C20.2366 24.4546 18.452 23.8268 16.5276 22.1707C16.307 21.9809 16.0847 21.7782 15.8618 21.5637C16.6079 20.7477 17.3535 19.799 18.0813 18.7455C19.3614 18.6319 20.5707 18.4462 21.6674 18.1927C21.7213 18.4107 21.7693 18.6243 21.8107 18.8333V18.8333ZM10.8131 23.8882C9.99788 24.1761 9.34857 24.1843 8.95613 23.958C8.12085 23.4764 7.77375 21.6167 8.24729 19.1225C8.3036 18.8277 8.36807 18.5346 8.44064 18.2434C9.52516 18.4832 10.7257 18.6558 12.0089 18.7599C12.7414 19.7908 13.5086 20.7383 14.2817 21.5681C14.1174 21.727 13.9492 21.8819 13.7773 22.0326C12.7499 22.9307 11.7205 23.5677 10.8132 23.8882H10.8131ZM6.99378 16.6721C5.70267 16.2307 4.63642 15.6573 3.90555 15.0315C3.24886 14.469 2.91724 13.9107 2.91724 13.4575C2.91724 12.4934 4.35472 11.2636 6.75215 10.4277C7.05307 10.3233 7.35697 10.2277 7.66348 10.141C7.99488 11.2187 8.42951 12.3456 8.95402 13.485C8.42271 14.6415 7.98187 15.7863 7.64743 16.8767C7.4279 16.8138 7.20996 16.7456 6.99378 16.6721V16.6721ZM8.27412 7.95719C7.77645 5.41397 8.1069 3.49558 8.93855 3.01419C9.82445 2.5014 11.7832 3.23262 13.8477 5.06571C13.9796 5.18289 14.1122 5.30558 14.2449 5.43249C13.4757 6.25851 12.7156 7.1989 11.9894 8.22378C10.7441 8.3392 9.552 8.52459 8.45611 8.7729C8.3886 8.50253 8.32792 8.2305 8.27412 7.95707V7.95719ZM19.6956 10.7774C19.4367 10.3303 19.1683 9.88881 18.8904 9.45326C19.7353 9.55989 20.5447 9.70169 21.3047 9.87523C21.0766 10.6066 20.7922 11.3713 20.4572 12.1553C20.2125 11.691 19.9586 11.2316 19.6956 10.7774V10.7774ZM15.0379 6.24081C15.5596 6.80599 16.0821 7.43713 16.5961 8.12183C15.5535 8.07256 14.5092 8.07233 13.4666 8.12113C13.981 7.44276 14.508 6.81255 15.0379 6.24081V6.24081ZM10.3504 10.7852C10.0906 11.2357 9.84142 11.6923 9.60297 12.1544C9.27357 11.3732 8.99175 10.605 8.7616 9.86328C9.51708 9.69419 10.3227 9.55603 11.1621 9.45115C10.8811 9.8894 10.6105 10.3342 10.3504 10.7852V10.7852ZM11.1862 17.5446C10.3191 17.4478 9.50126 17.3167 8.74602 17.1523C8.9798 16.3974 9.26783 15.6127 9.60426 14.8147C9.84371 15.2772 10.094 15.7341 10.3549 16.1848C10.6212 16.6446 10.8984 17.098 11.1862 17.5446V17.5446ZM15.0692 20.7541C14.5331 20.1756 13.9984 19.5358 13.4761 18.8476C13.983 18.8675 14.4999 18.8776 15.0252 18.8776C15.565 18.8776 16.0985 18.8655 16.6236 18.842C16.108 19.5428 15.5874 20.1836 15.0692 20.7541ZM20.468 14.7741C20.8219 15.5807 21.1203 16.3612 21.3572 17.1033C20.5894 17.2785 19.7606 17.4196 18.8872 17.5243C19.1671 17.0806 19.4381 16.6314 19.7001 16.177C19.9665 15.7151 20.2225 15.2473 20.468 14.7741V14.7741ZM18.7202 15.6119C18.3192 16.3087 17.8955 16.9922 17.45 17.6614C16.6644 17.7176 15.8526 17.7465 15.0252 17.7465C14.2013 17.7465 13.3998 17.7208 12.6279 17.6708C12.1708 17.0031 11.7392 16.3184 11.3339 15.6181C10.9305 14.9215 10.5536 14.2099 10.2042 13.4847C10.5528 12.7593 10.9284 12.0473 11.3305 11.3501V11.3503C11.7324 10.653 12.1607 9.97123 12.6143 9.30643C13.4018 9.2469 14.2092 9.21573 15.0254 9.21573C15.8452 9.21573 16.6536 9.24713 17.4408 9.30713C17.8899 9.97091 18.3155 10.6503 18.7166 11.3441C19.12 12.0397 19.5007 12.7483 19.8581 13.4686C19.5044 14.1963 19.1249 14.9112 18.7204 15.6119H18.7202ZM21.0537 2.98056C21.9403 3.49194 22.2852 5.55401 21.7281 8.25823C21.6916 8.43439 21.6519 8.60988 21.609 8.78461C20.5106 8.53115 19.3176 8.34248 18.0687 8.2253C17.3411 7.18929 16.5873 6.24726 15.8305 5.4319C16.0288 5.24072 16.2319 5.0545 16.4394 4.87341C18.3942 3.17215 20.2212 2.50046 21.0537 2.98056V2.98056Z" fill="white"/>
<path d="M15.0252 11.0931C16.3311 11.0931 17.3896 12.1517 17.3896 13.4575C17.3896 14.7634 16.3311 15.822 15.0252 15.822C13.7195 15.822 12.6608 14.7634 12.6608 13.4575C12.6608 12.1517 13.7195 11.0931 15.0252 11.0931" fill="#53C1DE"/>
</g>
<defs>
<clipPath id="clip0_4_18840">
<rect width="30" height="26.952" fill="white"/>
</clipPath>
</defs>
</svg>
