<svg width="24" height="24" viewBox="0 0 24 24" fill="none" xmlns="http://www.w3.org/2000/svg">
<path d="M21.195 3.42857C20.8817 1.51629 16.4062 0 10.9286 0C5.45103 0 0.975455 1.51629 0.662169 3.42857H0.642883V3.64286V8.57143V8.78571V9V13.7143V13.9286V14.1429V19.2857H0.662169C0.975455 21.1976 5.45145 22.7143 10.9286 22.7143C16.4057 22.7143 20.8817 21.1976 21.195 19.2857H21.2143V14.1429V13.9286V13.7143V9V8.78571V8.57143V3.64286V3.42857H21.195Z" fill="#545E73"/>
<path d="M10.9286 17.5714C5.24788 17.5714 0.642883 15.9403 0.642883 13.9286V19.2857H0.662169C0.975455 21.1976 5.45145 22.7143 10.9286 22.7143C16.4057 22.7143 20.8817 21.1976 21.195 19.2857H21.2143V13.9286C21.2143 15.9403 16.6093 17.5714 10.9286 17.5714Z" fill="#38454F"/>
<path d="M0.642883 13.7143V13.9286C0.642883 13.8566 0.650598 13.7854 0.662169 13.7143H0.642883Z" fill="#38454F"/>
<path d="M21.195 13.7143C21.2066 13.7854 21.2143 13.8566 21.2143 13.9286V13.7143H21.195Z" fill="#38454F"/>
<path d="M10.9286 12.4286C5.24788 12.4286 0.642883 10.7974 0.642883 8.78571V14.1428H0.662169C0.975455 16.0547 5.45145 17.5714 10.9286 17.5714C16.4057 17.5714 20.8817 16.0547 21.195 14.1428H21.2143V8.78571C21.2143 10.7974 16.6093 12.4286 10.9286 12.4286Z" fill="#556080"/>
<path d="M0.642883 8.57141V8.7857C0.642883 8.7137 0.650598 8.64255 0.662169 8.57141H0.642883Z" fill="#556080"/>
<path d="M21.195 8.57141C21.2066 8.64255 21.2143 8.7137 21.2143 8.7857V8.57141H21.195Z" fill="#556080"/>
<path d="M10.9286 7.28571C16.6092 7.28571 21.2143 5.65475 21.2143 3.64286C21.2143 1.63096 16.6092 0 10.9286 0C5.24795 0 0.642883 1.63096 0.642883 3.64286C0.642883 5.65475 5.24795 7.28571 10.9286 7.28571Z" fill="#91BAE1"/>
<path d="M10.9286 7.28574C5.24788 7.28574 0.642883 5.6546 0.642883 3.64288V9.00003H0.662169C0.975455 10.9119 5.45145 12.4286 10.9286 12.4286C16.4057 12.4286 20.8817 10.9119 21.195 9.00003H21.2143V3.64288C21.2143 5.6546 16.6093 7.28574 10.9286 7.28574Z" fill="#8697CB"/>
<path d="M0.642883 3.42859V3.64287C0.642883 3.57087 0.650598 3.49973 0.662169 3.42859H0.642883Z" fill="#8697CB"/>
<path d="M21.195 3.42859C21.2066 3.49973 21.2143 3.57087 21.2143 3.64287V3.42859H21.195Z" fill="#8697CB"/>
<path d="M18.2143 24C21.0547 24 23.3572 21.6975 23.3572 18.8572C23.3572 16.0168 21.0547 13.7143 18.2143 13.7143C15.374 13.7143 13.0715 16.0168 13.0715 18.8572C13.0715 21.6975 15.374 24 18.2143 24Z" fill="#26B999"/>
<path d="M21.0305 16.3624C20.8355 16.227 20.5689 16.275 20.4339 16.4696L18.0356 19.9153L16.3432 18.5258C16.1606 18.3754 15.8902 18.4024 15.7402 18.5854C15.5898 18.7684 15.6163 19.0384 15.7998 19.1884L17.8509 20.8723C17.928 20.9353 18.024 20.9696 18.1226 20.9696C18.1419 20.9696 18.1616 20.9683 18.1813 20.9657C18.2996 20.949 18.4059 20.8843 18.4745 20.7861L21.1376 16.9594C21.2726 16.7648 21.2246 16.4978 21.0305 16.3624Z" fill="white"/>
</svg>
