<svg xmlns="http://www.w3.org/2000/svg" width="24" height="24" fill="none" viewBox="0 0 36 36">
  <path fill="#000" d="M18 10.145c-4.331 0-7.855 3.524-7.855 7.855s3.524 7.855 7.855 7.855 7.855-3.524 7.855-7.855-3.524-7.855-7.855-7.855Zm0 14.654A6.806 6.806 0 0 1 11.202 18 6.806 6.806 0 0 1 18 11.202 6.806 6.806 0 0 1 24.799 18 6.806 6.806 0 0 1 18 24.799Zm0-16.415a.528.528 0 0 0 .528-.529V.528a.528.528 0 1 0-1.056 0v7.327c0 .292.236.529.528.529Zm0 19.232a.528.528 0 0 0-.528.529v7.327a.528.528 0 1 0 1.056 0v-7.327a.528.528 0 0 0-.528-.529Zm17.472-10.144h-7.327a.528.528 0 1 0 0 1.056h7.327a.528.528 0 1 0 0-1.056ZM8.384 18a.528.528 0 0 0-.529-.528H.528a.528.528 0 1 0 0 1.056h7.327A.528.528 0 0 0 8.384 18Zm16.789-6.645c.136 0 .27-.052.374-.155l5.18-5.18a.528.528 0 0 0-.746-.748L24.8 10.453a.528.528 0 0 0 .373.902ZM10.453 24.8l-5.18 5.18a.528.528 0 1 0 .746.748l5.181-5.18a.528.528 0 0 0-.747-.748Zm0-13.6a.527.527 0 0 0 .747 0 .529.529 0 0 0 0-.747l-5.18-5.18a.528.528 0 0 0-.748.746l5.181 5.181Zm15.094 13.6a.528.528 0 0 0-.747.747l5.18 5.18a.527.527 0 0 0 .748 0 .528.528 0 0 0 0-.746L25.547 24.8Z"/>
</svg>
