<svg width="24" height="24" viewBox="0 0 24 24" fill="none" xmlns="http://www.w3.org/2000/svg">
<path d="M3.225 21.675L0 2.51248L6 0.0374756L9.7875 2.28748L13.3125 0.412476L20.5875 3.22498L16.5 24L3.225 21.675V21.675Z" fill="url(#paint0_linear_4_18872)"/>
<path d="M24 8.1375L20.8875 0.4875L15.3 0L6.6 8.325L8.925 19.0875L13.3125 22.125L24 15.7875L21.375 10.875L24 8.1375Z" fill="url(#paint1_linear_4_18872)"/>
<path d="M19.2 6.975L21.375 10.875L24 8.1375L22.0875 3.375L19.2 6.975V6.975Z" fill="url(#paint2_linear_4_18872)"/>
<path d="M4.5 4.5H19.5V19.5H4.5V4.5Z" fill="black"/>
<path d="M5.925 16.6875H11.55V17.625H5.925V16.6875ZM13.275 11.775L14.0625 10.8C14.625 11.25 15.1875 11.55 15.9 11.55C16.4625 11.55 16.8 11.325 16.8 10.95C16.8 10.6125 16.575 10.425 15.5625 10.1625C14.325 9.825 13.5375 9.4875 13.5375 8.25V8.2125C13.5375 7.0875 14.4375 6.3375 15.675 6.3375C16.5046 6.33401 17.3109 6.61159 17.9625 7.125L17.25 8.175C16.7973 7.8212 16.2484 7.6121 15.675 7.575C15.1875 7.575 14.8875 7.8 14.8875 8.1375C14.8875 8.55 15.15 8.7 16.2 8.9625C17.4375 9.3 18.15 9.75 18.15 10.8375C18.15 12.075 17.2125 12.7875 15.9 12.7875C14.9366 12.7521 14.0127 12.3957 13.275 11.775M12.075 6.45L11.1375 10.05L10.0875 6.45H9.0375L7.9875 10.05L7.05 6.45H5.5875L7.3875 12.675H8.55L9.5625 9.075L10.575 12.675H11.7375L13.5375 6.45H12.075V6.45Z" fill="white"/>
<defs>
<linearGradient id="paint0_linear_4_18872" x1="8.58562" y1="0.498726" x2="14.7975" y2="22.8581" gradientUnits="userSpaceOnUse">
<stop offset="0.28" stop-color="#00CDD7"/>
<stop offset="0.94" stop-color="#2086D7"/>
</linearGradient>
<linearGradient id="paint1_linear_4_18872" x1="10.5131" y1="3.34688" x2="21.0206" y2="18.7537" gradientUnits="userSpaceOnUse">
<stop offset="0.14" stop-color="#FFF045"/>
<stop offset="0.37" stop-color="#00CDD7"/>
</linearGradient>
<linearGradient id="paint2_linear_4_18872" x1="20.9456" y1="5.23687" x2="22.3256" y2="10.125" gradientUnits="userSpaceOnUse">
<stop offset="0.28" stop-color="#00CDD7"/>
<stop offset="0.94" stop-color="#2086D7"/>
</linearGradient>
</defs>
</svg>
