<svg width="512" height="512" viewBox="0 0 512 512" fill="none" xmlns="http://www.w3.org/2000/svg">
<g clip-path="url(#clip0_1001_2)">
<path d="M256 0C114.606 0 0 114.606 0 256C0 397.394 114.606 512 256 512C397.394 512 512 397.394 512 256C512 114.606 397.394 0 256 0ZM55.0093 258.662L253.338 456.991C144.425 455.578 56.4224 367.575 55.0093 258.662ZM300.995 451.973L60.0269 211.005C80.4659 121.651 160.44 54.9683 256 54.9683C322.785 54.9683 381.972 87.552 418.529 137.687L390.697 162.243C361.042 119.726 311.767 91.8938 256 91.8938C184.996 91.8938 124.518 136.991 101.663 200.11L311.89 410.317C362.947 391.823 402.207 348.733 415.355 295.363H328.233V256H457.052C457.032 351.56 390.349 431.534 300.995 451.973Z" fill="#744C9E"/>
</g>
<defs>
<clipPath id="clip0_1001_2">
<rect width="512" height="512" fill="white"/>
</clipPath>
</defs>
</svg>
